<svg xmlns="http://www.w3.org/2000/svg" viewBox="0 0 512 512">
  <defs>
    <linearGradient id="bg" x1="0%" y1="0%" x2="100%" y2="100%">
      <stop offset="0%" style="stop-color:#1a1a2e"/>
      <stop offset="100%" style="stop-color:#0a0a0f"/>
    </linearGradient>
    <linearGradient id="accent" x1="0%" y1="0%" x2="100%" y2="100%">
      <stop offset="0%" style="stop-color:#0a84ff"/>
      <stop offset="100%" style="stop-color:#5856d6"/>
    </linearGradient>
  </defs>
  
  <!-- Background -->
  <rect width="512" height="512" rx="96" fill="url(#bg)"/>
  
  <!-- Glass effect overlay -->
  <rect x="40" y="40" width="432" height="432" rx="72" fill="rgba(255,255,255,0.05)"/>
  
  <!-- AI symbol - stylized neural network / brain -->
  <g transform="translate(256, 256)">
    <!-- Center node -->
    <circle cx="0" cy="0" r="32" fill="url(#accent)"/>
    
    <!-- Outer nodes -->
    <circle cx="-100" cy="-60" r="20" fill="url(#accent)" opacity="0.8"/>
    <circle cx="100" cy="-60" r="20" fill="url(#accent)" opacity="0.8"/>
    <circle cx="-100" cy="60" r="20" fill="url(#accent)" opacity="0.8"/>
    <circle cx="100" cy="60" r="20" fill="url(#accent)" opacity="0.8"/>
    <circle cx="0" cy="-110" r="16" fill="url(#accent)" opacity="0.6"/>
    <circle cx="0" cy="110" r="16" fill="url(#accent)" opacity="0.6"/>
    
    <!-- Connections -->
    <g stroke="url(#accent)" stroke-width="3" opacity="0.5">
      <line x1="0" y1="0" x2="-100" y2="-60"/>
      <line x1="0" y1="0" x2="100" y2="-60"/>
      <line x1="0" y1="0" x2="-100" y2="60"/>
      <line x1="0" y1="0" x2="100" y2="60"/>
      <line x1="0" y1="0" x2="0" y2="-110"/>
      <line x1="0" y1="0" x2="0" y2="110"/>
      <line x1="-100" y1="-60" x2="0" y2="-110"/>
      <line x1="100" y1="-60" x2="0" y2="-110"/>
      <line x1="-100" y1="60" x2="0" y2="110"/>
      <line x1="100" y1="60" x2="0" y2="110"/>
    </g>
  </g>
  
  <!-- Subtle highlight -->
  <ellipse cx="200" cy="120" rx="160" ry="80" fill="rgba(255,255,255,0.03)"/>
</svg>
